<svg width="14" height="14" viewBox="0 0 14 14" fill="none" xmlns="http://www.w3.org/2000/svg">
<path d="M10.9457 8.54675C10.773 8.71408 10.6937 8.95608 10.733 9.19341L11.3257 12.4734C11.3757 12.7514 11.2583 13.0327 11.0257 13.1934C10.7977 13.3601 10.4943 13.3801 10.2457 13.2467L7.293 11.7067C7.19033 11.6521 7.07633 11.6227 6.95967 11.6194H6.779C6.71633 11.6287 6.655 11.6487 6.599 11.6794L3.64567 13.2267C3.49967 13.3001 3.33433 13.3261 3.17233 13.3001C2.77767 13.2254 2.51433 12.8494 2.579 12.4527L3.17233 9.17275C3.21167 8.93341 3.13233 8.69008 2.95967 8.52008L0.552335 6.18675C0.351001 5.99141 0.281001 5.69808 0.373001 5.43341C0.462335 5.16941 0.690335 4.97675 0.965668 4.93341L4.279 4.45275C4.531 4.42675 4.75233 4.27341 4.86567 4.04675L6.32567 1.05341C6.36033 0.986748 6.405 0.925415 6.459 0.873415L6.519 0.826748C6.55033 0.792081 6.58633 0.763415 6.62633 0.740081L6.699 0.713415L6.81234 0.666748H7.093C7.34367 0.692748 7.56433 0.842748 7.67967 1.06675L9.159 4.04675C9.26567 4.26475 9.473 4.41608 9.71234 4.45275L13.0257 4.93341C13.3057 4.97341 13.5397 5.16675 13.6323 5.43341C13.7197 5.70075 13.6443 5.99408 13.439 6.18675L10.9457 8.54675Z" fill="#FFBB0E"/>
</svg>
